# xmcd
#
# Track frame offsets: 
#        150
#        19327
#        37085
#        52895
#        69415
#        85542
#        106212
#        125237
#        137855
#        159085
#        170930
#        181482
#        196505
#        215377
#        234317
#
# Disc length: 3332 seconds
#
# Revision: 2
# Processed by: cddbd v1.5.2PL0 Copyright (c) Steve Scherf et al.
# Submitted via: ExactAudioCopy v1.0b3
#
DISCID=c90d020f
DTITLE=エイミ・カリーナ - kiss〜KISS ME,LOVE
DYEAR=2001
DGENRE=Vocal
TTITLE0=彼女(MARIO) [エイミ・カリーナ] (88.2kHz24bit)
TTITLE1=ジョン・ウォーレン - テイク・ミー・バック [ジョン・ウォーレン] (88.2kHz24bit)
TTITLE2=マリーナ・ショウ - スキヤキ(上を向いて歩こう) [マリーナ・ショウ] (88.2kHz24bit)
TTITLE3=ベス・アンダーセン - オールウェイズ・マイン [ベス・アンダーセン] (88.2kHz24bit)
TTITLE4=アンドリュー・ゴールド - ウォーム・ブリーゼス [アンドリュー・ゴールド] (88.2kHz24bit)
TTITLE5=ストリング・オブ・パール - ランデブー [ストリング・オブ・パール] (88.2kHz24bit)
TTITLE6=マラ・ゲッツ - ユーアー・イン・マイ・ハート [マラ・ゲッツ] (88.2kHz24bit)
TTITLE7=マラ・ゲッツ - ハロー、フル・ムーン [マラ・ゲッツ] (88.2kHz24bit)
TTITLE8=郡愛子 - ダイナマイト [郡愛子] (88.2kHz24bit)
TTITLE9=リンダ・ヘンリック - スイート・ベイビー・オブ・マイン [エイミ・カリーナ] (88.2kHz24bit)
TTITLE10=カジア・モスデル - サウザンド・アンド・ワン・ラブ・ソング [エイミ・カリーナ] (88.2kHz24bit)
TTITLE11=アニタ・オデイ - イージー・ライフ [アニタ・オデイ] (88.2kHz24bit)
TTITLE12=アニタ・オデイ - アイ・ワンダー・ホワット・シーズ・ライク [アニタ・オデイ] (88.2kHz24bit)
TTITLE13=アンドリュー・ゴールド - コージー・プレイス [アンドリュー・ゴールド] (88.2kHz24bit)
TTITLE14=ケーメル - ラベリント・デ・パシオン [ケーメル] (88.2kHz24bit)
EXTD=
EXTT0=
EXTT1=
EXTT2=
EXTT3=
EXTT4=
EXTT5=
EXTT6=
EXTT7=
EXTT8=
EXTT9=
EXTT10=
EXTT11=
EXTT12=
EXTT13=
EXTT14=
PLAYORDER=
